#!OML:ASF H:\Dans Jumps\Project 1\Capture day 1\Session 1\subject.ASF
:FULLY-SPECIFIED
:DEGREES
133
root 0.46842 16.1059 -15.6217 15.2024 -1.74463 -1.19465
lowerback 15.5543 0.0581775 -0.365337
upperback 8.48296 0.0474263 1.96709
thorax 0.267377 -0.03952 2.25812
lowerneck -14.6395 0.863278 -0.645799
upperneck 21.6393 1.88281 -2.25947
head 9.24229 0.571559 -0.438248
rclavicle 3.97569e-015 -1.23246e-014
rhumerus -29.3984 -16.2507 -72.4841
rradius 26.2425
rwrist 28.2458
rhand -18.7274 -24.491
rfingers 7.12502
rthumb 7.56826 -54.3356
lclavicle 3.97569e-015 -1.23246e-014
lhumerus -27.2278 -1.87333 84.2333
lradius 22.5543
lwrist 16.1158
lhand -28.6636 -6.18266
lfingers 7.12502
lthumb -2.02678 23.7875
rfemur -49.1465 -2.29429 19.6982
rtibia 57.0086
rfoot -21.5921 -5.92711
rtoes 0.190154
lfemur -48.6268 8.95325 -22.3146
ltibia 56.0669
lfoot -20.4838 7.15685
ltoes -1.09281
134
root 0.466818 16.0509 -15.6527 15.3924 -1.74787 -1.20741
lowerback 15.8353 0.0704157 -0.387627
upperback 8.57001 0.0607926 1.97095
thorax 0.212402 -0.0341954 2.27416
lowerneck -14.6535 0.862783 -0.639408
upperneck 21.2823 1.87953 -2.29466
head 9.12157 0.571297 -0.451082
rclavicle -5.1684e-015 -1.2921e-014
rhumerus -29.7758 -16.4524 -72.1198
rradius 26.1322
rwrist 28.4006
rhand -18.6742 -24.5702
rfingers 7.12502
rthumb 7.61961 -54.4129
lclavicle -5.1684e-015 -1.2921e-014
lhumerus -27.5539 -1.68185 84.0782
lradius 22.3267
lwrist 15.8679
lhand -28.5684 -6.06596
lfingers 7.12502
lthumb -1.93491 23.905
rfemur -49.9547 -2.28693 19.7347
rtibia 57.8488
rfoot -21.8053 -6.01346
rtoes 0.0614582
lfemur -49.4444 8.93616 -22.3515
ltibia 56.9204
lfoot -20.6849 7.29266
ltoes -1.19941
135
root 0.465127 15.9952 -15.683 15.5808 -1.74986 -1.22342
lowerback 16.1106 0.0823324 -0.409596
upperback 8.65698 0.0736431 1.97666
thorax 0.160759 -0.0291952 2.29198
lowerneck -14.6726 0.865935 -0.626977
upperneck 20.9369 1.88123 -2.33503
head 9.00644 0.573119 -0.466054
rclavicle -2.38542e-015 1.25234e-014
rhumerus -30.1575 -16.6532 -71.7502
rradius 26.0224
rwrist 28.5686
rhand -18.6215 -24.6309
rfingers 7.12502
rthumb 7.67052 -54.4718
lclavicle -2.38542e-015 1.25234e-014
lhumerus -27.8849 -1.51022 83.9357
lradius 22.1069
lwrist 15.7207
lhand -28.4824 -5.95534
lfingers 7.12502
lthumb -1.85184 24.0164
rfemur -50.7589 -2.27861 19.7753
rtibia 58.6868
rfoot -22.0178 -6.09945
rtoes -0.058757
lfemur -50.259 8.92136 -22.3843
ltibia 57.7724
lfoot -20.8855 7.4229
ltoes -1.30751
136
root 0.46337 15.9388 -15.7128 15.7671 -1.74918 -1.23772
lowerback 16.3806 0.0936635 -0.434105
upperback 8.7444 0.0852527 1.98349
thorax 0.112833 -0.0249572 2.31255
lowerneck -14.6985 0.870963 -0.614294
upperneck 20.6023 1.8857 -2.37557
head 8.89686 0.576085 -0.480753
rclavicle -1.19271e-015 -4.17448e-015
rhumerus -30.5404 -16.8692 -71.3693
rradius 25.9043
rwrist 28.7631
rhand -18.5765 -24.6578
rfingers 7.12502
rthumb 7.71392 -54.4971
lclavicle -1.19271e-015 -4.17448e-015
lhumerus -28.2157 -1.36149 83.8083
lradius 21.8902
lwrist 15.6692
lhand -28.4035 -5.86083
lfingers 7.12502
lthumb -1.7756 24.1115
rfemur -51.5592 -2.27635 19.816
rtibia 59.5221
rfoot -22.2281 -6.18162
rtoes -0.171769
lfemur -51.0688 8.9034 -22.4175
ltibia 58.6218
lfoot -21.083 7.55115
ltoes -1.41832
137
root 0.461589 15.8819 -15.7418 15.9523 -1.74978 -1.25311
lowerback 16.642 0.105722 -0.456042
upperback 8.83266 0.0979307 1.98888
thorax 0.0705788 -0.0201295 2.3299
lowerneck -14.7337 0.878075 -0.593969
upperneck 20.2801 1.89215 -2.41902
head 8.79373 0.580059 -0.497426
rclavicle -6.36111e-015 2.04748e-014
rhumerus -30.9314 -17.0912 -70.984
rradius 25.7837
rwrist 29.0082
rhand -18.5762 -24.635
rfingers 7.12502
rthumb 7.71423 -54.4743
lclavicle -6.36111e-015 2.04748e-014
lhumerus -28.5415 -1.24826 83.697
lradius 21.6619
lwrist 15.6761
lhand -28.3443 -5.80411
lfingers 7.12502
lthumb -1.71847 24.1687
rfemur -52.3557 -2.27733 19.8596
rtibia 60.3529
rfoot -22.4348 -6.26043
rtoes -0.281745
lfemur -51.8748 8.88425 -22.4488
ltibia 59.4693
lfoot -21.2789 7.68126
ltoes -1.53332
138
root 0.459648 15.8244 -15.7702 16.1345 -1.74585 -1.2637
lowerback 16.8985 0.116921 -0.479076
upperback 8.92039 0.1092 1.99267
thorax 0.030785 -0.0160113 2.34638
lowerneck -14.7703 0.885453 -0.573304
upperneck 19.9654 1.89836 -2.45998
head 8.69375 0.584135 -0.513314
rclavicle 3.37934e-015 7.55382e-015
rhumerus -31.3262 -17.3231 -70.5951
rradius 25.6592
rwrist 29.2691
rhand -18.578 -24.5939
rfingers 7.12502
rthumb 7.71245 -54.4333
lclavicle 3.37934e-015 7.55382e-015
lhumerus -28.8665 -1.16427 83.5994
lradius 21.4254
lwrist 15.6835
lhand -28.2789 -5.75502
lfingers 7.12502
lthumb -1.65533 24.2183
rfemur -53.1481 -2.2884 19.9015
rtibia 61.1794
rfoot -22.6367 -6.33698
rtoes -0.395122
lfemur -52.6758 8.85705 -22.4829
ltibia 60.3135
lfoot -21.4688 7.81686
ltoes -1.66301
139
root 0.457509 15.7665 -15.7982 16.3136 -1.73606 -1.27267
lowerback 17.1482 0.127295 -0.498118
upperback 9.01021 0.11978 1.99478
thorax -0.00284496 -0.0121195 2.35888
lowerneck -14.8114 0.891859 -0.551982
upperneck 19.6557 1.90217 -2.49661
head 8.59659 0.587515 -0.528094
rclavicle 7.95139e-016 2.42517e-014
rhumerus -31.7255 -17.5498 -70.2129
rradius 25.5468
rwrist 29.5139
rhand -18.574 -24.5588
rfingers 7.12502
rthumb 7.71629 -54.398
lclavicle 7.95139e-016 2.42517e-014
lhumerus -29.1867 -1.10784 83.5132
lradius 21.1777
lwrist 15.6566
lhand -28.217 -5.70124
lfingers 7.12502
lthumb -1.59546 24.2725
rfemur -53.9338 -2.30955 19.9455
rtibia 62.0002
rfoot -22.8338 -6.41294
rtoes -0.528317
lfemur -53.4713 8.82205 -22.5164
ltibia 61.1538
lfoot -21.6521 7.96124
ltoes -1.8191
140
root 0.455227 15.7084 -15.8255 16.4875 -1.72444 -1.27519
lowerback 17.4005 0.137452 -0.519187
upperback 9.09635 0.129697 1.99303
thorax -0.0413776 -0.00846506 2.36854
lowerneck -14.848 0.897501 -0.53089
upperneck 19.3493 1.90365 -2.52775
head 8.49992 0.59037 -0.541248
rclavicle -3.18055e-015 1.41137e-014
rhumerus -32.1368 -17.759 -69.8404
rradius 25.4481
rwrist 29.7282
rhand -18.5562 -24.5411
rfingers 7.12502
rthumb 7.7335 -54.3797
lclavicle -3.18055e-015 1.41137e-014
lhumerus -29.5138 -1.062 83.4306
lradius 20.9192
lwrist 15.5533
lhand -28.1591 -5.65472
lfingers 7.12502
lthumb -1.5396 24.3195
rfemur -54.7107 -2.33921 19.9843
rtibia 62.8153
rfoot -23.0289 -6.48311
rtoes -0.66934
lfemur -54.2577 8.78038 -22.5556
ltibia 61.9877
lfoot -21.83 8.11644
ltoes -2.00578
141
root 0.452672 15.6499 -15.8525 16.6552 -1.70579 -1.27376
lowerback 17.6552 0.145864 -0.540928
upperback 9.1812 0.137198 1.99033
thorax -0.0820891 -0.00597388 2.37798
lowerneck -14.8815 0.902666 -0.51229
upperneck 19.0444 1.90347 -2.55202
head 8.4034 0.592985 -0.55187
rclavicle -4.96962e-015 -8.74653e-015
rhumerus -32.555 -17.9488 -69.4776
rradius 25.3625
rwrist 29.9144
rhand -18.5196 -24.5374
rfingers 7.12502
rthumb 7.76889 -54.3746
lclavicle -4.96962e-015 -8.74653e-015
lhumerus -29.846 -1.01784 83.3502
lradius 20.6571
lwrist 15.3795
lhand -28.1101 -5.62696
lfingers 7.12502
lthumb -1.49228 24.3476
rfemur -55.4238 -2.37633 20.0207
rtibia 63.4613
rfoot -23.1145 -6.53041
rtoes -0.817661
lfemur -54.9802 8.73002 -22.596
ltibia 62.644
lfoot -21.8884 8.24542
ltoes -2.22456
142
root 0.449922 15.5913 -15.8787 16.8168 -1.68094 -1.26651
lowerback 17.9116 0.152841 -0.565573
upperback 9.26378 0.142356 1.98655
thorax -0.12551 -0.00466416 2.38833
lowerneck -14.9106 0.905684 -0.498471
upperneck 18.7422 1.89961 -2.5678
head 8.3071 0.594397 -0.559292
rclavicle 8.34896e-015 -1.17283e-014
rhumerus -32.9825 -18.1155 -69.1249
rradius 25.2879
rwrist 30.0728
rhand -18.4844 -24.5463
rfingers 7.12502
rthumb 7.80283 -54.3823
lclavicle 8.34896e-015 -1.17283e-014
lhumerus -30.1857 -0.963957 83.2677
lradius 20.3933
lwrist 15.128
lhand -28.0885 -5.66603
lfingers 7.12502
lthumb -1.47139 24.3086
rfemur -56.1272 -2.42366 20.0525
rtibia 64.1052
rfoot -23.2051 -6.56985
rtoes -0.964827
lfemur -55.6941 8.66937 -22.6389
ltibia 63.295
lfoot -21.9435 8.38096
ltoes -2.45421
143
root 0.449068 15.6122 -15.9129 16.9734 -1.65231 -1.25554
lowerback 18.1657 0.158605 -0.593389
upperback 9.34575 0.145368 1.98294
thorax -0.167989 -0.00452329 2.40102
lowerneck -14.9393 0.9082 -0.485331
upperneck 18.4456 1.89483 -2.58123
head 8.21288 0.595489 -0.565928
rclavicle -3.57812e-015 1.86858e-014
rhumerus -33.4121 -18.2674 -68.7785
rradius 25.2186
rwrist 30.2185
rhand -18.4372 -24.5514
rfingers 7.12502
rthumb 7.84836 -54.3858
lclavicle -3.57812e-015 1.86858e-014
lhumerus -30.5231 -0.876849 83.1733
lradius 20.1302
lwrist 14.8128
lhand -28.0529 -5.72211
lfingers 7.12502
lthumb -1.43702 24.2528
rfemur -56.4742 -2.47168 20.0852
rtibia 64.3996
rfoot -23.2981 -6.61212
rtoes -1.11754
lfemur -56.058 8.59378 -22.6858
ltibia 63.5997
lfoot -21.9928 8.52919
ltoes -2.69223
144
root 0.446228 15.5542 -15.9382 17.1267 -1.61777 -1.24511
lowerback 18.4176 0.162882 -0.620702
upperback 9.42567 0.146522 1.98208
thorax -0.211001 -0.00532733 2.41668
lowerneck -14.9648 0.909115 -0.473764
upperneck 18.1555 1.888 -2.59302
head 8.12043 0.5956 -0.572012
rclavicle 4.96962e-015 1.25234e-014
rhumerus -33.8445 -18.4054 -68.435
rradius 25.1505
rwrist 30.3587
rhand -18.3909 -24.5357
rfingers 7.12502
rthumb 7.89303 -54.3683
lclavicle 4.96962e-015 1.25234e-014
lhumerus -30.8611 -0.755718 83.068
lradius 19.8768
lwrist 14.4701
lhand -28.0017 -5.78944
lfingers 7.12502
lthumb -1.38754 24.1858
rfemur -57.1554 -2.53201 20.1164
rtibia 65.0325
rfoot -23.3957 -6.64298
rtoes -1.25978
lfemur -56.7496 8.51477 -22.7229
ltibia 64.233
lfoot -22.0407 8.67065
ltoes -2.9127
145
root 0.443427 15.4957 -15.9629 17.2796 -1.57957 -1.23703
lowerback 18.662 0.167261 -0.645296
upperback 9.50491 0.148172 1.98372
thorax -0.250582 -0.00587231 2.43333
lowerneck -14.992 0.908455 -0.45741
upperneck 17.872 1.8789 -2.60878
head 8.03083 0.594457 -0.580469
rclavicle 9.14409e-015 -2.34566e-014
rhumerus -34.277 -18.5381 -68.0921
rradius 25.0816
rwrist 30.5117
rhand -18.3429 -24.4884
rfingers 7.12502
rthumb 7.93943 -54.3193
lclavicle 9.14409e-015 -2.34566e-014
lhumerus -31.1957 -0.62525 82.9625
lradius 19.6271
lwrist 14.1217
lhand -27.9482 -5.8428
lfingers 7.12502
lthumb -1.33584 24.1328
rfemur -57.8361 -2.59693 20.1526
rtibia 65.665
rfoot -23.4917 -6.67415
rtoes -1.40462
lfemur -57.4391 8.42818 -22.7525
ltibia 64.8636
lfoot -22.0876 8.81004
ltoes -3.10456
146
root 0.440709 15.4366 -15.9871 17.4333 -1.53615 -1.2299
lowerback 18.9 0.170615 -0.667022
upperback 9.5809 0.148971 1.98777
thorax -0.29 -0.00676621 2.45105
lowerneck -15.015 0.907016 -0.439277
upperneck 17.5922 1.86874 -2.62657
head 7.94194 0.592703 -0.590016
rclavicle -1.78906e-015 -1.98785e-015
rhumerus -34.7122 -18.6662 -67.7459
rradius 25.0064
rwrist 30.6879
rhand -18.2995 -24.4027
rfingers 7.12502
rthumb 7.9813 -54.2321
lclavicle -1.78906e-015 -1.98785e-015
lhumerus -31.5343 -0.495128 82.8615
lradius 19.391
lwrist 13.8006
lhand -27.8864 -5.86192
lfingers 7.12502
lthumb -1.27621 24.114
rfemur -58.5646 -2.66892 20.1938
rtibia 66.4487
rfoot -23.6886 -6.72952
rtoes -1.56018
lfemur -58.1768 8.33574 -22.7776
ltibia 65.6506
lfoot -22.2382 8.97962
ltoes -3.2692
